<svg xmlns="http://www.w3.org/2000/svg" xmlns:xlink="http://www.w3.org/1999/xlink" width="1280" zoomAndPan="magnify" viewBox="0 0 960 225" height="300" preserveAspectRatio="xMidYMid meet" version="1.0"><defs><g/></defs><g fill="#9f3f73" fill-opacity="1"><g transform="translate(-2.946205, 208.190055)"><g><path d="M 127.472656 -174.460938 L 127.472656 -103.515625 L 53.96875 -103.515625 L 53.96875 -174.460938 L 17.679688 -174.460938 L 17.679688 0 L 53.96875 0 L 53.96875 -71.179688 L 127.472656 -71.179688 L 127.472656 0 L 163.53125 0 L 163.53125 -174.460938 Z M 127.472656 -174.460938 "/></g></g></g><g fill="#9f3f73" fill-opacity="1"><g transform="translate(178.247876, 208.190055)"><g><path d="M 126.3125 -142.359375 L 126.3125 -174.460938 L 19.074219 -174.460938 L 19.074219 0 L 126.3125 0 L 126.3125 -32.101562 L 55.363281 -32.101562 L 55.363281 -71.179688 L 116.539062 -71.179688 L 116.539062 -103.28125 L 55.363281 -103.28125 L 55.363281 -142.359375 Z M 126.3125 -142.359375 "/></g></g></g><g fill="#9f3f73" fill-opacity="1"><g transform="translate(315.015676, 208.190055)"><g><path d="M 139.800781 0 L 179.113281 0 L 109.097656 -174.460938 L 68.390625 -174.460938 L -1.628906 0 L 37.683594 0 L 50.246094 -33.730469 L 127.242188 -33.730469 Z M 61.644531 -64.203125 L 88.859375 -137.242188 L 116.074219 -64.203125 Z M 61.644531 -64.203125 "/></g></g></g><g fill="#9f3f73" fill-opacity="1"><g transform="translate(492.488176, 208.190055)"><g><path d="M 17.679688 0 L 73.972656 0 C 101.1875 0 122.820312 -8.140625 138.871094 -24.890625 C 154.691406 -41.40625 162.832031 -62.109375 162.832031 -87.230469 C 162.832031 -112.121094 154.691406 -132.824219 138.871094 -149.574219 C 122.820312 -166.089844 101.1875 -174.460938 73.972656 -174.460938 L 17.679688 -174.460938 Z M 53.734375 -32.332031 L 53.734375 -142.128906 L 72.34375 -142.128906 C 88.625 -142.128906 101.652344 -137.011719 110.957031 -126.777344 C 120.261719 -116.539062 125.148438 -103.28125 125.148438 -87.230469 C 125.148438 -70.949219 120.261719 -57.921875 110.957031 -47.6875 C 101.652344 -37.453125 88.625 -32.332031 72.34375 -32.332031 Z M 53.734375 -32.332031 "/></g></g></g><g fill="#9f3f73" fill-opacity="1"><g transform="translate(666.704314, 208.190055)"><g><path d="M 126.3125 -142.359375 L 126.3125 -174.460938 L 19.074219 -174.460938 L 19.074219 0 L 126.3125 0 L 126.3125 -32.101562 L 55.363281 -32.101562 L 55.363281 -71.179688 L 116.539062 -71.179688 L 116.539062 -103.28125 L 55.363281 -103.28125 L 55.363281 -142.359375 Z M 126.3125 -142.359375 "/></g></g></g><g fill="#9f3f73" fill-opacity="1"><g transform="translate(803.472077, 208.190055)"><g><path d="M 106.304688 -72.578125 C 116.773438 -75.367188 125.378906 -81.414062 132.125 -90.253906 C 138.871094 -99.09375 142.359375 -109.5625 142.359375 -121.425781 C 142.359375 -136.3125 137.242188 -148.875 127.472656 -159.109375 C 117.472656 -169.34375 105.144531 -174.460938 90.488281 -174.460938 L 17.679688 -174.460938 L 17.679688 0 L 53.96875 0 L 53.96875 -68.855469 L 70.484375 -68.855469 L 113.75 0 L 155.621094 0 Z M 85.371094 -98.863281 L 53.96875 -98.863281 L 53.96875 -142.128906 L 85.371094 -142.128906 C 91.652344 -142.128906 97 -140.035156 101.1875 -135.847656 C 105.375 -131.660156 107.46875 -126.542969 107.46875 -120.496094 C 107.46875 -114.214844 105.375 -109.097656 101.1875 -104.910156 C 97 -100.722656 91.652344 -98.863281 85.371094 -98.863281 Z M 85.371094 -98.863281 "/></g></g></g><path stroke-linecap="butt" transform="matrix(1.213819, 0, 0, 1.213819, -157.518745, -10.847686)" fill="none" stroke-linejoin="miter" d="M 224.928545 29.269075 L 224.928545 87.707413 L 164.337266 87.707413 L 164.337266 29.269075 L 134.440677 29.269075 L 134.440677 173.001191 L 164.337266 173.001191 L 164.337266 114.3762 L 224.928545 114.3762 L 224.928545 173.001191 L 254.59021 173.001191 L 254.59021 29.269075 Z M 373.220777 55.706155 L 373.220777 29.269075 L 284.885849 29.269075 L 284.885849 173.001191 L 373.220777 173.001191 L 373.220777 146.564111 L 314.782438 146.564111 L 314.782438 114.3762 L 365.17219 114.3762 L 365.17219 87.894066 L 314.782438 87.894066 L 314.782438 55.706155 Z M 497.032561 173.001191 L 529.407123 173.001191 L 471.718613 29.269075 L 438.172645 29.269075 L 380.484135 173.001191 L 412.910188 173.001191 L 423.250096 145.20927 L 486.692653 145.20927 Z M 432.60525 120.130248 L 455.064701 59.915492 L 477.475879 120.130248 Z M 542.601528 173.001191 L 589.016867 173.001191 C 611.428046 173.001191 629.253364 166.310663 642.447768 152.508029 C 655.500574 138.892047 662.191103 121.813339 662.191103 101.133524 C 662.191103 80.64358 655.500574 63.564871 642.447768 49.762237 C 629.253364 36.146256 611.428046 29.269075 589.016867 29.269075 L 542.601528 29.269075 Z M 572.311464 146.377458 L 572.311464 55.892808 L 587.658809 55.892808 C 601.088138 55.892808 611.801351 60.102145 619.473414 68.572309 C 627.148696 76.9942 631.17138 87.894066 631.17138 101.133524 C 631.17138 114.562853 627.148696 125.276066 619.473414 133.697957 C 611.801351 142.168121 601.088138 146.377458 587.658809 146.377458 Z M 775.634016 55.706155 L 775.634016 29.269075 L 687.299088 29.269075 L 687.299088 173.001191 L 775.634016 173.001191 L 775.634016 146.564111 L 717.195678 146.564111 L 717.195678 114.3762 L 767.585429 114.3762 L 767.585429 87.894066 L 717.195678 87.894066 L 717.195678 55.706155 Z M 871.840532 113.204795 C 880.449076 110.913474 887.561182 105.906036 893.128577 98.65555 C 898.650918 91.356792 901.550469 82.748248 901.550469 72.968298 C 901.550469 60.710375 897.337914 50.370467 889.292545 41.903521 C 881.009034 33.48163 870.858997 29.269075 858.787726 29.269075 L 798.804677 29.269075 L 798.804677 173.001191 L 828.701266 173.001191 L 828.701266 116.294216 L 842.317248 116.294216 L 877.967885 173.001191 L 912.450334 173.001191 Z M 854.575171 91.543445 L 828.701266 91.543445 L 828.701266 55.892808 L 854.575171 55.892808 C 859.769261 55.892808 864.168469 57.624171 867.627977 61.08368 C 871.04565 64.546406 872.777013 68.758961 872.777013 73.718126 C 872.777013 78.912216 871.04565 83.121553 867.627977 86.58428 C 864.168469 89.998734 859.769261 91.543445 854.575171 91.543445 Z M 854.575171 91.543445 " stroke="#f8a9ad" stroke-width="7.186751" stroke-opacity="1" stroke-miterlimit="4"/></svg>